<svg width="376" height="376" viewBox="0 0 376 376" fill="none" xmlns="http://www.w3.org/2000/svg">
<g clip-path="url(#clip0)">
<path d="M375.467 149.363C375.467 102.771 307.883 25.032 294.315 9.928C287.661 2.859 276.536 2.522 269.466 9.177C269.208 9.42 268.957 9.67 268.715 9.928C245.026 36.596 223.885 65.422 205.568 96.029C194.475 82.461 185.941 72.818 183.125 69.661C176.471 62.592 165.346 62.255 158.276 68.91C158.018 69.153 157.767 69.403 157.525 69.661C134.245 96.044 112.642 123.86 92.842 152.946C84.991 139.719 77.397 128.455 73.301 122.567C67.94 114.814 57.309 112.876 49.557 118.237C47.864 119.408 46.397 120.875 45.227 122.567C34.987 138.098 1.44186e-06 190.834 1.44186e-06 217.628C-0.141999 248.508 23.277 274.406 54.016 277.361C68.257 341.785 132.027 382.467 196.452 368.227C251.107 356.146 290.047 307.736 290.133 251.761C290.081 248.905 289.853 246.055 289.45 243.228C338.204 239.138 375.639 198.287 375.467 149.363ZM59.734 243.23C45.596 243.23 34.134 231.768 34.134 217.63C34.134 209.097 45.825 186.313 59.734 163.614C73.643 186.313 85.334 209.097 85.334 217.63C85.334 231.768 73.872 243.23 59.734 243.23ZM170.667 337.096C130.829 336.877 96.377 309.28 87.467 270.451C107.114 260.152 119.436 239.813 119.467 217.63C118.799 208.024 116.369 198.623 112.299 189.897C112.983 186.139 114.499 182.582 116.736 179.486C133.275 154.353 151.283 130.219 170.667 107.209C208.043 151.412 256 219.252 256 251.764C256.001 298.891 217.796 337.096 170.667 337.096ZM281.601 209.096H279.553C265.866 179.514 248.923 151.551 229.036 125.725C229.354 124.673 229.814 123.668 230.401 122.738C244.785 95.98 261.947 70.81 281.601 47.645C309.59 81.778 341.334 128.029 341.334 149.362C341.334 182.353 314.59 209.096 281.601 209.096Z" fill="white"/>
<path d="M325.724 129.757C325.6 129.429 325.455 129.108 325.292 128.798C323.927 125.811 322.391 122.739 320.769 119.667C318.246 115.686 312.974 114.504 308.993 117.027C305.363 119.327 304.01 123.968 305.835 127.859C307.286 130.504 308.651 133.235 309.76 135.795C311.427 140.203 316.352 142.425 320.76 140.757C325.168 139.089 327.391 134.165 325.724 129.757Z" fill="white"/>
<path d="M309.846 101.917C302.763 91.506 295.254 81.949 290.219 75.72C287.432 71.92 282.092 71.098 278.291 73.885C274.491 76.672 273.669 82.012 276.456 85.813C276.623 86.041 276.802 86.261 276.992 86.472C281.856 92.445 289.024 101.576 295.68 111.475C298.319 115.387 303.63 116.418 307.541 113.779C311.454 111.14 312.485 105.829 309.846 101.917Z" fill="white"/>
<path d="M195.969 306.589C194.626 302.065 189.869 299.486 185.345 300.829C180.582 302.249 175.638 302.967 170.668 302.962C165.955 302.962 162.135 306.782 162.135 311.495C162.135 316.208 165.955 320.028 170.668 320.028C177.284 320.041 183.866 319.093 190.209 317.212C194.733 315.87 197.312 311.114 195.969 306.589Z" fill="white"/>
<path d="M236.459 232.307C235.116 227.783 230.359 225.204 225.835 226.547C221.311 227.89 218.732 232.647 220.075 237.171C225.392 254.997 220.622 274.304 207.616 287.603C204.313 290.964 204.36 296.367 207.721 299.671C209.226 301.15 211.225 302.019 213.333 302.11C215.613 302.101 217.795 301.179 219.392 299.55C236.895 281.912 243.432 256.157 236.459 232.307Z" fill="white"/>
</g>
<defs>
<clipPath id="clip0">
<rect width="375.468" height="375.468" fill="white"/>
</clipPath>
</defs>
</svg>
