<svg width="512" height="512" viewBox="0 0 512 512" fill="none" xmlns="http://www.w3.org/2000/svg">
<path d="M234.501 317.738V65C234.501 29.159 205.342 0 169.501 0C133.66 0 104.501 29.159 104.501 65V317.738C77.43 338.11 61.501 369.772 61.501 404C61.501 463.551 109.949 512 169.501 512C229.053 512 277.501 463.551 277.501 404C277.501 369.772 261.572 338.11 234.501 317.738V317.738ZM169.501 482C126.491 482 91.501 447.009 91.501 404C91.501 377.238 104.987 352.645 127.576 338.213C131.89 335.457 134.501 330.692 134.501 325.572V65C134.501 45.701 150.202 30 169.501 30C188.8 30 204.501 45.701 204.501 65V325.573C204.501 330.692 207.111 335.458 211.426 338.214C234.015 352.645 247.501 377.238 247.501 404C247.501 447.009 212.511 482 169.501 482V482Z" fill="white"/>
<path d="M184.501 361.58V65C184.501 56.716 177.785 50 169.501 50C161.217 50 154.501 56.716 154.501 65V361.58C137.042 367.772 124.501 384.445 124.501 403.999C124.501 428.812 144.688 448.999 169.501 448.999C194.314 448.999 214.501 428.812 214.501 403.999C214.501 384.445 201.96 367.772 184.501 361.58ZM169.501 419C161.23 419 154.501 412.271 154.501 404C154.501 395.729 161.23 389 169.501 389C177.772 389 184.501 395.729 184.501 404C184.501 412.271 177.772 419 169.501 419Z" fill="white"/>
<path d="M279.501 79.625C271.217 79.625 264.501 86.341 264.501 94.625C264.501 102.909 271.217 109.625 279.501 109.625C313.619 109.625 341.377 137.383 341.377 171.502C341.377 205.62 313.619 233.378 279.501 233.378C271.217 233.378 264.501 240.094 264.501 248.378C264.501 256.662 271.217 263.378 279.501 263.378C330.161 263.378 371.377 222.162 371.377 171.502C371.377 120.84 330.161 79.625 279.501 79.625V79.625Z" fill="white"/>
<path d="M279.5 56C287.784 56 294.5 49.284 294.5 41V15.001C294.5 6.71701 287.784 0.00100708 279.5 0.00100708C271.216 0.00100708 264.5 6.71701 264.5 15.001V41C264.5 49.284 271.216 56 279.5 56Z" fill="white"/>
<path d="M279.5 287.001C271.216 287.001 264.5 293.717 264.5 302.001V328C264.5 336.284 271.216 343 279.5 343C287.784 343 294.5 336.284 294.5 328V302.001C294.5 293.717 287.784 287.001 279.5 287.001Z" fill="white"/>
<path d="M435.499 156.501H409.501C401.217 156.501 394.501 163.217 394.501 171.501C394.501 179.785 401.217 186.501 409.501 186.501H435.499C443.783 186.501 450.499 179.785 450.499 171.501C450.499 163.217 443.783 156.501 435.499 156.501Z" fill="white"/>
<path d="M371.778 94.223C375.617 94.223 379.456 92.759 382.384 89.829L400.768 71.445C406.626 65.587 406.626 56.09 400.768 50.232C394.911 44.374 385.413 44.374 379.555 50.232L361.171 68.616C355.313 74.474 355.313 83.971 361.171 89.829C364.101 92.758 367.939 94.223 371.778 94.223V94.223Z" fill="white"/>
<path d="M382.031 252.818C376.174 246.96 366.676 246.961 360.818 252.818C354.961 258.676 354.96 268.173 360.818 274.031L379.201 292.415C382.13 295.344 385.969 296.809 389.807 296.809C393.645 296.809 397.485 295.344 400.413 292.416C406.27 286.558 406.271 277.061 400.413 271.203L382.031 252.818Z" fill="white"/>
</svg>
