<svg width="512" height="512" viewBox="0 0 512 512" fill="none" xmlns="http://www.w3.org/2000/svg">
<path d="M449.223 167.438H405.711C401.57 167.438 398.211 170.797 398.211 174.938C398.211 179.078 401.57 182.438 405.711 182.438H449.223C453.363 182.438 456.723 179.078 456.723 174.938C456.723 170.797 453.363 167.438 449.223 167.438V167.438Z" fill="white"/>
<path d="M405.711 121.652H425.465C429.609 121.652 432.965 118.293 432.965 114.152C432.965 110.008 429.609 106.652 425.465 106.652H405.711C401.57 106.652 398.211 110.008 398.211 114.152C398.211 118.293 401.57 121.652 405.711 121.652V121.652Z" fill="white"/>
<path d="M405.711 60.8633H432.469C436.609 60.8633 439.969 57.5078 439.969 53.3633C439.969 49.2227 436.609 45.8633 432.469 45.8633H405.711C401.57 45.8633 398.211 49.2227 398.211 53.3633C398.211 57.5078 401.57 60.8633 405.711 60.8633Z" fill="white"/>
<path d="M432.469 289.012H405.711C401.57 289.012 398.211 292.367 398.211 296.512C398.211 300.652 401.57 304.012 405.711 304.012H432.469C436.609 304.012 439.969 300.652 439.969 296.512C439.969 292.367 436.609 289.012 432.469 289.012Z" fill="white"/>
<path d="M405.711 243.223H425.465C429.609 243.223 432.965 239.867 432.965 235.723C432.965 231.582 429.609 228.223 425.465 228.223H405.711C401.57 228.223 398.211 231.582 398.211 235.723C398.211 239.867 401.57 243.223 405.711 243.223V243.223Z" fill="white"/>
<path d="M182.109 162.809C194.516 169.434 195.262 170.934 198.563 170.934C206.281 170.934 208.941 160.645 202.234 156.887L189.434 149.723L198.848 145.867C202.68 144.297 204.516 139.914 202.945 136.082C201.375 132.25 196.996 130.418 193.164 131.984L172.715 140.359L145.887 125.336L172.715 110.312C193.742 118.727 193.422 119.25 196.004 119.25C204.195 119.25 206.43 107.914 198.848 104.809L189.438 100.953L202.234 93.7852C205.848 91.7656 207.141 87.1914 205.117 83.5781C203.094 79.9648 198.523 78.6758 194.906 80.6992L182.109 87.8633L183.742 77.8242C184.406 73.7383 181.629 69.8828 177.539 69.2188C173.457 68.5547 169.598 71.3281 168.934 75.418L165.391 97.2266L138.035 112.543V81.1914L155.332 67.4453C158.574 64.8672 159.113 60.1523 156.539 56.9062C153.961 53.6641 149.242 53.125 146 55.7031L138.035 62.0312V47.3633C138.035 43.2227 134.68 39.8633 130.535 39.8633C126.395 39.8633 123.035 43.2227 123.035 47.3633V62.0312L115.074 55.7031C111.832 53.125 107.113 53.6641 104.535 56.9102C101.957 60.1523 102.496 64.8672 105.742 67.4453L123.035 81.1953V112.543L95.6836 97.2266L92.1367 75.418C91.4727 71.3281 87.6211 68.5547 83.5313 69.2188C79.4453 69.8828 76.668 73.7383 77.332 77.8242L78.9649 87.8633L66.1641 80.6992C62.5508 78.6758 57.9805 79.9648 55.957 83.5781C53.9336 87.1914 55.2227 91.7656 58.836 93.7852L71.6367 100.953L62.2227 104.809C58.3906 106.379 56.5586 110.758 58.125 114.594C59.6992 118.43 64.082 120.258 67.9102 118.691L88.3555 110.316L115.184 125.34L88.3555 140.359L67.9102 131.984C64.0742 130.418 59.6953 132.25 58.125 136.086C56.5547 139.918 58.3906 144.297 62.2227 145.867L71.6367 149.723L58.836 156.891C52.1289 160.645 54.793 170.934 62.5078 170.934C65.8086 170.934 66.5625 169.43 78.9649 162.809L77.332 172.852C76.5899 177.414 80.1133 181.555 84.7461 181.555C88.3555 181.555 91.5391 178.938 92.1367 175.258L95.6836 153.449L123.035 138.133V169.48L105.742 183.23C102.496 185.805 101.957 190.523 104.535 193.766C107.113 197.012 111.832 197.551 115.074 194.973L123.035 188.645V203.312C123.035 207.453 126.395 210.812 130.535 210.812C134.68 210.812 138.035 207.453 138.035 203.312V188.645C144.961 193.66 146.453 196.602 150.66 196.602C157.73 196.598 160.891 187.645 155.332 183.23L138.035 169.48V138.133L165.391 153.449L168.934 175.258C169.531 178.938 172.715 181.555 176.328 181.555C180.969 181.555 184.48 177.402 183.742 172.852L182.109 162.809Z" fill="white"/>
<path d="M373.148 309.805V67.8398C373.148 30.4336 342.719 0 305.312 0C267.906 0 237.473 30.4336 237.473 67.8398V309.805C209.449 331.031 192.836 364.273 192.836 399.523C192.836 461.543 243.293 512 305.312 512C367.332 512 417.789 461.543 417.789 399.523C417.789 364.273 401.176 331.031 373.148 309.805ZM305.312 497C251.562 497 207.836 453.273 207.836 399.523C207.836 367.836 223.332 338.012 249.289 319.75C251.285 318.344 252.473 316.055 252.473 313.613V67.8398C252.473 38.7031 276.176 15 305.312 15C334.445 15 358.148 38.7031 358.148 67.8398V313.613C358.148 316.055 359.336 318.344 361.332 319.75C387.293 338.016 402.789 367.836 402.789 399.523C402.789 453.273 359.059 497 305.312 497V497Z" fill="white"/>
<path d="M338.141 324.668V67.8398C338.141 49.7344 323.414 35.0078 305.312 35.0078C287.211 35.0078 272.48 49.7344 272.48 67.8398V91.0625C272.48 95.2031 275.84 98.5625 279.98 98.5625C284.125 98.5625 287.48 95.2031 287.48 91.0625V67.8398C287.48 58.0078 295.48 50.0078 305.312 50.0078C315.145 50.0078 323.141 58.0078 323.141 67.8398V290.094H287.48V121.133C287.48 116.988 284.125 113.633 279.98 113.633C275.84 113.633 272.48 116.988 272.48 121.133V324.668C244.062 337.477 225.312 366.152 225.312 397.617C225.312 441.73 261.199 477.617 305.309 477.617C349.422 477.617 385.309 441.73 385.309 397.617C385.312 366.152 366.559 337.477 338.141 324.668V324.668ZM305.312 462.617C269.469 462.617 240.312 433.461 240.312 397.617C240.312 370.617 257.305 346.141 282.602 336.719C285.535 335.625 287.484 332.82 287.484 329.691V305.094H323.141V329.691C323.141 332.82 325.09 335.625 328.023 336.719C353.32 346.141 370.312 370.613 370.312 397.617C370.312 433.461 341.152 462.617 305.312 462.617Z" fill="white"/>
</svg>
