<svg width="512" height="512" viewBox="0 0 512 512" fill="none" xmlns="http://www.w3.org/2000/svg">
<path d="M240.93 331.98V134.219C240.93 125.934 234.215 119.219 225.93 119.219C217.648 119.219 210.93 125.934 210.93 134.219V331.98C184.562 338.684 165 362.621 165 391.051C165 424.652 192.332 451.988 225.93 451.988C259.527 451.988 286.863 424.652 286.863 391.051C286.863 362.621 267.297 338.684 240.93 331.98ZM225.93 421.988C208.875 421.988 195 408.109 195 391.051C195 373.988 208.875 360.109 225.93 360.109C242.988 360.109 256.863 373.988 256.863 391.051C256.863 408.109 242.988 421.988 225.93 421.988Z" fill="white"/>
<path d="M300.375 295.727V74.4531C300.375 33.3984 266.98 0 225.93 0C184.883 0 151.488 33.3984 151.488 74.4531V295.727C122.238 318.59 105 353.648 105 391.047C105 457.742 159.25 512 225.93 512C292.613 512 346.863 457.742 346.863 391.047C346.863 353.648 329.625 318.59 300.375 295.727ZM225.93 482C175.789 482 135 441.199 135 391.047C135 360.879 149.922 332.73 174.918 315.75C179.027 312.957 181.488 308.309 181.488 303.34V74.4531C181.488 49.9414 201.426 30 225.93 30C250.438 30 270.375 49.9414 270.375 74.4531V303.34C270.375 308.309 272.836 312.957 276.945 315.75C301.941 332.73 316.863 360.879 316.863 391.047C316.863 441.199 276.07 482 225.93 482Z" fill="white"/>
<path d="M391.863 239.488H345.375C337.09 239.488 330.375 246.203 330.375 254.488C330.375 262.773 337.09 269.488 345.375 269.488H391.863C400.145 269.488 406.863 262.773 406.863 254.488C406.863 246.203 400.145 239.488 391.863 239.488V239.488Z" fill="white"/>
<path d="M391.863 179.477H345.375C337.09 179.477 330.375 186.191 330.375 194.477C330.375 202.762 337.09 209.477 345.375 209.477H391.863C400.145 209.477 406.863 202.762 406.863 194.477C406.863 186.191 400.145 179.477 391.863 179.477Z" fill="white"/>
<path d="M391.863 119.465H345.375C337.09 119.465 330.375 126.18 330.375 134.465C330.375 142.75 337.09 149.465 345.375 149.465H391.863C400.145 149.465 406.863 142.75 406.863 134.465C406.863 126.18 400.145 119.465 391.863 119.465Z" fill="white"/>
<path d="M345.375 89.4531H391.863C400.145 89.4531 406.863 82.7383 406.863 74.4531C406.863 66.1719 400.145 59.4531 391.863 59.4531H345.375C337.09 59.4531 330.375 66.1719 330.375 74.4531C330.375 82.7383 337.09 89.4531 345.375 89.4531V89.4531Z" fill="white"/>
</svg>
