<svg width="470" height="470" viewBox="0 0 470 470" fill="none" xmlns="http://www.w3.org/2000/svg">
<g clip-path="url(#clip0)">
<path d="M276.771 170.668C335 170.668 405.334 128.335 405.334 75.772C405.334 62.267 400.102 50.073 390.04 39.41C400.079 31.911 410.431 25.38 420.772 20.209C426.043 17.574 428.168 11.167 425.543 5.897C422.897 0.616004 416.501 -1.499 411.23 1.126C398.105 7.689 385.023 16.389 372.429 26.298C365.676 23.086 358.506 21.334 350.896 21.334C298.334 21.335 256 91.668 256 149.897C256 161.345 265.313 170.668 276.771 170.668ZM350.896 42.668C351.685 42.668 352.429 42.848 353.202 42.908C331.156 63.74 312.013 88.135 299.792 112.564C297.167 117.835 299.292 124.241 304.563 126.877C306.105 127.637 307.73 128.002 309.334 128.002C313.23 128.002 317.001 125.846 318.876 122.106C331.126 97.601 350.942 73.062 373.608 52.922C373.634 52.948 373.663 52.965 373.689 52.991C380.625 59.939 384 67.387 384 75.772C384 114.543 324.521 149.064 277.333 149.335C277.605 102.158 312.125 42.668 350.896 42.668Z" fill="white"/>
<path d="M4.27101 317.866C6.18801 319.304 8.43801 320.001 10.667 320.001C13.896 320.001 17.105 318.532 19.209 315.73C19.813 314.928 81.646 234.667 224.001 234.667C229.897 234.667 234.668 229.896 234.668 224C234.668 218.104 229.897 213.333 224.001 213.333C71.084 213.333 4.87601 299.271 2.12601 302.937C-1.39499 307.647 -0.436993 314.335 4.27101 317.866Z" fill="white"/>
<path d="M405.334 170.668C357.459 170.668 343.855 195.106 342.459 197.897C339.876 203.064 341.959 209.21 347.042 211.939C352.167 214.689 358.542 212.699 361.417 207.689C361.771 207.043 370.771 192.001 405.334 192.001C443.834 192.001 448.001 221.834 448.001 234.668C448.001 251.272 430.355 298.668 352.001 298.668C305.605 298.668 278.563 292.168 254.688 286.428C235.209 281.751 216.813 277.334 192 277.334C137.125 277.334 35.479 321.188 1.125 389.897C-1.5 395.168 0.624999 401.574 5.896 404.21C7.438 404.97 9.063 405.335 10.667 405.335C14.563 405.335 18.334 403.179 20.209 399.439C50.5 338.855 143.667 298.668 192 298.668C214.292 298.668 230.688 302.616 249.708 307.178C274.729 313.188 303.083 320.001 352 320.001C447.771 320.001 469.333 256.803 469.333 234.668C469.334 205.147 452.563 170.668 405.334 170.668Z" fill="white"/>
<path d="M224 341.335C110.937 341.335 86.854 409.72 85.875 412.627C84.021 418.221 87.042 424.262 92.625 426.117C98.25 428.013 104.25 424.982 106.125 419.377C106.313 418.804 126.146 362.669 224 362.669C319.792 362.669 362.667 389.461 362.667 416.002C362.667 442.45 345.271 448.002 330.667 448.002C316.896 448.002 300.646 434.846 295.521 429.783C291.354 425.637 284.625 425.627 280.458 429.814C276.291 433.981 276.291 440.72 280.458 444.877C282.958 447.377 305.646 469.335 330.666 469.335C356.458 469.335 383.999 455.325 383.999 416.002C384 379.908 341.959 341.335 224 341.335Z" fill="white"/>
</g>
<defs>
<clipPath id="clip0">
<rect width="469.335" height="469.335" fill="white"/>
</clipPath>
</defs>
</svg>
