<svg width="512" height="512" viewBox="0 0 512 512" fill="none" xmlns="http://www.w3.org/2000/svg">
<path d="M405.051 42.294C380.792 42.294 357.014 50.658 338.098 65.845C331.638 71.032 330.606 80.472 335.791 86.932C340.978 93.391 350.419 94.425 356.879 89.238C370.489 78.311 387.597 72.294 405.051 72.294C447.481 72.294 482 106.813 482 149.243C482 191.673 447.48 226.192 405.051 226.192H122.999C114.715 226.192 107.999 232.908 107.999 241.192C107.999 249.476 114.715 256.192 122.999 256.192H405.051C464.023 256.192 512 208.215 512 149.243C512 90.271 464.022 42.294 405.051 42.294V42.294Z" fill="white"/>
<path d="M94.262 196.293H254.499C262.784 196.293 269.499 189.577 269.499 181.293C269.499 173.009 262.784 166.293 254.499 166.293H94.262C85.978 166.293 79.262 173.009 79.262 181.293C79.262 189.577 85.978 196.293 94.262 196.293V196.293Z" fill="white"/>
<path d="M250.295 286.294H15C6.716 286.294 0 293.01 0 301.294C0 309.578 6.716 316.294 15 316.294H250.295C284.32 316.294 312.002 343.975 312.002 378C312.002 412.025 284.32 439.706 250.295 439.706C236.298 439.706 222.58 434.88 211.665 426.118C205.206 420.932 195.765 421.964 190.578 428.424C185.391 434.884 186.424 444.325 192.884 449.511C209.105 462.533 229.494 469.705 250.295 469.705C300.862 469.705 342.002 428.566 342.002 377.999C342.002 327.432 300.862 286.294 250.295 286.294V286.294Z" fill="white"/>
<path d="M15 196.293H35.235C43.519 196.293 50.235 189.577 50.235 181.293C50.235 173.009 43.519 166.293 35.235 166.293H15C6.716 166.293 0 173.009 0 181.293C0 189.577 6.716 196.293 15 196.293Z" fill="white"/>
<path d="M196 361.001C196 352.717 189.284 346.001 181 346.001H91C82.716 346.001 76 352.717 76 361.001C76 369.285 82.716 376.001 91 376.001H181C189.285 376.001 196 369.285 196 361.001Z" fill="white"/>
</svg>
